PathFileType	4	(X/Y/Z)	D:\Studies\Accel_Decel\Raw_data\p_01\static/static_01.trc
DataRate	CameraRate	NumFrames	NumMarkers	Units	OrigDataRate	OrigDataStartFrame	OrigNumFrames
200.000000	200.000000	4	63	mm	200.000000	493	987
Frame#	Time	C7			Sternum			MidT			L.ASIS			R.ASIS			L.PSIS			R.PSIS			L.Acromion			L.Elbow.Med			L.Elbow.Lat			L.Radius			L.Ulna			R.Acromion			R.Elbow.Med			R.Elbow.Lat			R.Ulna			R.Radius			L.Thigh.Post.Sup			L.Thigh.Ant.Sup			L.Thigh.Post.Inf			L.Thigh.Ant.Inf			L.Knee.Med			L.Knee.Lat			L.Shank.Post.Sup			L.Shank.Ant.Sup			L.Shank.Post.Inf			L.Shank.Ant.Inf			L.Ankle.Med			L.Ankle.Lat			L.Heel.Sup			L.Heel.Inf			L.Heel. Med			L.Heel.Lat			L.Midfoot.Med			L.Midfoot.Int			L.Midfoot.Lat			L.MTP1			L.MTP2			L.MTP5			L.Toe			R.Thigh.Post.Sup			R.Thigh.Ant.Sup			R.Thigh.Post.Inf			R.Thigh.Ant.Inf			R.Knee.Med			R.Knee.Lat			R.Shank.Post.Sup			R.Shank.Ant.Sup			R.Shank.Post.Inf			R.Shank.Ant.Inf			R.Ankle.Med			R.Ankle.Lat			R.Heel.Sup			R.Heel.Inf			R.Heel.Med			R.Heel.Lat			R.Midfoot.Med			R.Midfoot.Int			R.Midfoot.Lat			R.MTP1			R.MTP2			R.MTP5			R.Toe			
		X1	Y1	Z1	X2	Y2	Z2	X3	Y3	Z3	X4	Y4	Z4	X5	Y5	Z5	X6	Y6	Z6	X7	Y7	Z7	X8	Y8	Z8	X9	Y9	Z9	X10	Y10	Z10	X11	Y11	Z11	X12	Y12	Z12	X13	Y13	Z13	X14	Y14	Z14	X15	Y15	Z15	X16	Y16	Z16	X17	Y17	Z17	X18	Y18	Z18	X19	Y19	Z19	X20	Y20	Z20	X21	Y21	Z21	X22	Y22	Z22	X23	Y23	Z23	X24	Y24	Z24	X25	Y25	Z25	X26	Y26	Z26	X27	Y27	Z27	X28	Y28	Z28	X29	Y29	Z29	X30	Y30	Z30	X31	Y31	Z31	X32	Y32	Z32	X33	Y33	Z33	X34	Y34	Z34	X35	Y35	Z35	X36	Y36	Z36	X37	Y37	Z37	X38	Y38	Z38	X39	Y39	Z39	X40	Y40	Z40	X41	Y41	Z41	X42	Y42	Z42	X43	Y43	Z43	X44	Y44	Z44	X45	Y45	Z45	X46	Y46	Z46	X47	Y47	Z47	X48	Y48	Z48	X49	Y49	Z49	X50	Y50	Z50	X51	Y51	Z51	X52	Y52	Z52	X53	Y53	Z53	X54	Y54	Z54	X55	Y55	Z55	X56	Y56	Z56	X57	Y57	Z57	X58	Y58	Z58	X59	Y59	Z59	X60	Y60	Z60	X61	Y61	Z61	X62	Y62	Z62	X63	Y63	Z63	

494	2.465	146.4200134277344	1411.413696289063	233.6889953613282	301.4423217773439	1355.830810546875	230.7595062255861	103.0687103271485	1255.968627929688	234.3577117919923	298.2423095703126	948.078491210938	115.7035675048829	300.4902648925782	951.3647460937505	334.9162902832032	133.8651733398438	968.8637084960942	186.2009277343751	133.0416412353516	966.358276367188	267.7382202148439	216.2728424072267	1397.393432617188	50.00001525878909	235.5356597900392	1080.860473632813	56.00016784667972	213.3470001220704	1122.866943359375	-42.03618240356447	283.4910278320314	908.4810180664067	-120.2998657226563	239.9104309082032	870.5155639648442	-61.17699813842776	210.9541778564454	1384.809448242188	417.205993652344	232.7900848388673	1064.692626953125	412.9100341796877	211.625213623047	1097.396484375	519.8419189453127	240.8909301757814	850.6532592773442	520.639831542969	279.6283569335939	882.665893554688	588.0818481445315	192.954315185547	701.023376464844	54.79052734375003	266.9662170410157	700.1995849609377	40.69175338745119	191.2003631591797	596.8494873046877	60.8515548706055	253.9645843505861	611.8115844726565	42.79307174682619	255.8594970703126	480.4919433593752	175.5560150146485	217.5685424804689	502.0530090332034	59.93359375000003	152.6611022949219	308.7340393066407	45.34600830078126	233.6129150390626	297.1511230468751	46.78375244140626	156.3150482177735	247.3928375244142	46.82480621337892	217.0629425048829	219.5785217285157	48.71246337890628	201.4915008544923	113.8477783203126	139.5347137451172	182.3406829833985	100.7542266845704	49.73044586181643	116.9809951782227	79.5032653808594	101.2011413574219	111.6305694580079	48.74777984619143	97.46945190429693	144.1791229248047	49.19818496704104	138.6528778076172	132.7483978271485	44.54685211181642	56.67262649536136	243.5765228271486	88.62561035156253	138.2389678955079	277.5586853027345	110.2199172973633	88.60822296142581	221.0759735107423	84.95240020751956	33.6307945251465	328.2304687500001	62.56390762329104	119.5109634399415	336.0471801757814	75.1585388183594	86.1862716674805	315.8977966308595	59.27302169799808	21.74922370910645	374.3236694335939	68.47087860107425	80.69648742675784	170.3033752441407	711.0689086914065	389.9907531738284	240.0265350341798	708.6965332031252	418.5798950195315	177.6493225097657	625.5247802734377	405.7868957519534	237.2006683349611	603.4080810546877	419.265563964844	244.4888610839845	484.5666503906252	292.0078735351564	214.7695617675782	493.9710998535159	407.3110656738284	140.6644744873047	271.2681884765626	406.8552856445315	202.8285369873048	287.0161743164064	423.1645812988284	134.2681884765626	210.5435638427736	388.8088989257815	206.3057098388673	206.8116912841798	411.5515441894534	202.2203063964845	121.368148803711	317.463348388672	174.7943572998047	109.2994003295899	402.3929443359377	120.3588485717774	83.70481872558597	349.6880187988282	113.1608505249024	47.52866363525392	352.4724731445314	159.7834167480469	39.57906341552736	305.4826049804689	141.9610443115235	47.11059951782228	396.4151611328127	241.9146270751954	88.1278991699219	312.4583129882814	280.0458068847657	108.7530822753907	363.3601989746095	224.8932037353517	84.14770507812503	417.1724243164065	318.7781372070314	65.70517730712893	325.3999633789064	328.5916137695314	77.79261016845706	369.5661926269532	294.5813903808595	46.23548889160158	433.3300781250002	373.041717529297	71.85296630859378	371.6253967285157	
495	2.47	146.4520568847657	1411.407958984375	233.6974487304689	301.4561157226564	1355.809692382813	230.7687377929689	103.1142959594727	1255.943969726563	234.3723449707032	298.2680053710939	948.0682983398442	115.7013854980469	300.5124816894532	951.3544921875005	334.9162902832032	133.8970184326172	968.8613281250005	186.1717987060547	133.0764923095704	966.338500976563	267.7359619140626	216.2803802490236	1397.365966796875	49.99593353271487	235.4515228271486	1080.808349609375	56.03073883056643	213.3195343017579	1122.790283203125	-41.9873504638672	283.4378967285157	908.4215698242192	-120.2386016845704	239.8738861083986	870.4629516601567	-61.11812973022464	210.9773254394532	1384.782470703125	417.1996765136721	232.858123779297	1064.665771484375	412.9226379394534	211.6660919189454	1097.388549804688	519.8347778320315	240.9567413330079	850.6396484375005	520.635437011719	279.6939086914064	882.6580200195317	588.0501708984377	192.9473266601564	701.0487060546877	54.71833801269534	266.9866943359376	700.194274902344	40.64893722534181	191.1761169433594	596.8489990234377	60.8328552246094	254.0463867187501	611.8359375000002	42.84695434570314	255.8568267822267	480.5078735351565	175.5549926757813	217.5932006835939	502.0628051757815	59.90341949462893	152.6736297607422	308.722381591797	45.34120941162111	233.6123809814454	297.1600036621095	46.73255538940431	156.3041687011719	247.3983459472657	46.77578735351564	217.090545654297	219.6015167236329	48.71032333374026	201.4855194091798	113.8458251953126	139.5417633056641	182.3588256835938	100.7408294677735	49.73817443847659	116.9885330200196	79.46680450439456	101.1966171264649	111.6378326416016	48.76245117187503	97.44762420654303	144.1697082519532	49.1667289733887	138.6320037841797	132.7479248046876	44.55657196044923	56.65217208862308	243.5953674316407	88.61726379394534	138.2449798583985	277.5752258300782	110.2192764282227	88.61137390136722	221.0894622802736	84.94290161132815	33.63628387451173	328.2783508300782	62.57653808593753	119.5393524169922	336.0468750000001	75.18735504150393	86.17658996582034	315.886688232422	59.27483749389651	21.72439193725587	374.3294372558595	68.46918487548831	80.6721115112305	170.3722686767579	711.1272583007815	389.9928283691409	240.0457305908204	708.6968383789065	418.599792480469	177.6787414550782	625.4697265625002	405.7650146484377	237.2406616210939	603.3989257812502	419.2359924316409	244.5191650390626	484.5919494628909	292.0172424316407	214.8140106201173	493.9551696777346	407.3251647949221	140.6593475341797	271.2392578125001	406.8549499511721	202.8322906494142	287.0501098632814	423.1235961914065	134.2589416503907	210.5575714111329	388.7371520996096	206.3572540283204	206.8388824462892	411.5968322753909	202.2093811035157	121.364860534668	317.4645996093751	174.8177642822266	109.3084030151368	402.4024047851565	120.356185913086	83.6839294433594	349.6683959960939	113.1711654663087	47.50194549560548	352.4497375488282	159.800521850586	39.54881286621095	305.4427795410157	141.9378051757813	47.10666656494142	396.4073791503909	241.9503479003907	88.08339691162112	312.4524841308595	280.0396118164064	108.7575759887696	363.3572998046876	224.8868865966798	84.15012359619143	417.1745910644534	318.7826232910157	65.68631744384768	325.4046020507814	328.5721435546876	77.81694030761722	369.5753173828126	294.5749511718751	46.23408126831056	433.3410339355471	373.0495910644532	71.83982086181643	371.6294860839845	
496	2.475	146.4493103027344	1411.38427734375	233.6940460205079	301.4769592285157	1355.791625976563	230.784149169922	103.0984649658204	1255.927368164063	234.3931274414064	298.306854248047	948.0553588867192	115.7033767700196	300.5499572753907	951.3652343750005	334.936248779297	133.8775634765626	968.8661499023442	186.1939697265626	133.0903320312501	966.3241577148442	267.7261352539064	216.2566986083986	1397.320068359375	50.00319290161136	235.3368377685548	1080.795532226563	56.01564407348636	213.2540588378907	1122.754272460938	-41.94480514526369	283.4280090332032	908.3590698242192	-120.1602325439454	239.8509368896486	870.4321289062505	-61.03029251098636	210.9862823486329	1384.782104492188	417.1989746093752	232.8026885986329	1064.674194335938	412.8852233886721	211.7354888916017	1097.374755859375	519.831970214844	240.9732971191407	850.628295898438	520.6216430664065	279.7490844726564	882.6433105468755	588.0452270507815	192.936004638672	701.069274902344	54.71707916259768	267.0336914062501	700.1962890625002	40.6783905029297	191.2421264648438	596.8232421875002	60.83730316162112	254.0372467041017	611.870788574219	42.85309219360353	255.912322998047	480.5044555664065	175.5461730957032	217.630340576172	502.0562438964846	59.92009735107425	152.5874633789063	308.7647094726564	45.20599365234376	233.6018981933595	297.1360473632814	46.75002670288087	156.3340454101563	247.3947143554689	46.79174423217775	217.062469482422	219.5749664306642	48.70405960083011	201.4880523681642	113.8269958496094	139.5327758789063	182.361557006836	100.7446517944337	49.73465347290042	116.9754943847657	79.46214294433597	101.1855545043946	111.6262588500977	48.75080490112308	97.45190429687506	144.1546936035157	49.19268798828128	138.6286926269532	132.736557006836	44.54735565185548	56.63544464111331	243.6089477539064	88.62220764160159	138.2575073242188	277.5796813964845	110.2222442626954	88.61067962646487	221.0605010986329	84.9274597167969	33.64970779418947	328.265594482422	62.56349182128909	119.4989929199219	336.0508728027345	75.18910980224612	86.19538879394534	315.8919982910157	59.28252029418948	21.74590873718262	374.3397216796876	68.46636962890628	80.68992614746097	170.3872528076172	711.0627441406252	390.0003662109377	240.0923156738282	708.6872558593752	418.5960998535159	177.6984558105469	625.4463500976565	405.7829589843752	237.288543701172	603.403015136719	419.2760314941409	244.5333251953126	484.5794372558596	292.010467529297	214.8474731445314	493.9603576660159	407.3339538574221	140.6968078613282	271.296600341797	406.8254089355471	202.8732147216798	287.0144958496095	423.2238769531252	134.2937469482422	210.5312957763673	388.7844238281252	206.3519744873048	206.8261566162111	411.6270446777346	202.2183990478517	121.3539962768555	317.4605407714845	174.8156890869141	109.2968978881837	402.4002685546877	120.3165435791016	83.68019104003909	349.6771850585939	113.1765670776368	47.52188873291017	352.4669799804689	159.7575683593751	39.56161880493165	305.457000732422	141.9502563476563	47.08826065063478	396.406677246094	241.9328918457032	88.09637451171878	312.4543762207032	280.0471191406251	108.7502670288087	363.3592529296876	224.8888702392579	84.14394378662112	417.1794128417971	318.7866516113282	65.67661285400393	325.4140014648439	328.5928955078126	77.78951263427737	369.5661926269532	294.5912170410157	46.23352050781251	433.3332519531252	373.0478820800782	71.85176849365237	371.6246032714845	
497	2.48	146.4380645751954	1411.401733398438	233.7069396972657	301.4813232421876	1355.80126953125	230.7798004150392	103.0905380249024	1255.924072265625	234.4142456054689	298.3328857421876	948.0434570312505	115.7057418823243	300.6091918945314	951.3806152343755	334.9402160644532	133.8689575195313	968.870239257813	186.2258453369141	133.0840911865235	966.3330688476567	267.7545166015626	216.2322998046876	1397.297119140625	49.99933624267581	235.4067230224611	1080.741821289063	56.10187530517581	213.258026123047	1122.71533203125	-41.8707962036133	283.3995361328126	908.289428710938	-120.0896453857422	239.8014678955079	870.3952636718755	-60.956169128418	211.0040740966798	1384.777221679688	417.190368652344	232.8530883789064	1064.669067382813	412.893005371094	211.7907257080079	1097.373779296875	519.8380126953127	241.0100708007814	850.6313476562505	520.6502685546877	279.7980957031251	882.6267700195317	588.0267333984377	192.9815979003907	701.0574951171877	54.73015213012698	267.0124511718751	700.168395996094	40.68458175659181	191.232406616211	596.811706542969	60.80066299438479	254.0906219482423	611.795349121094	42.90603256225587	255.9437103271486	480.507263183594	175.5601806640626	217.6527099609376	502.0201110839846	59.93428421020511	152.7080230712891	308.7350463867189	45.35860061645509	233.6167602539064	297.1221618652345	46.73499298095705	156.3201904296876	247.4136810302736	46.80102157592775	217.1009063720704	219.5496063232423	48.72708892822268	201.4926605224611	113.8328094482422	139.5322570800782	182.3398437500001	100.7297668457032	49.74926376342776	116.9787063598633	79.47639465332034	101.2011032104493	111.6351318359376	48.74346923828128	97.47843933105474	144.1871490478516	49.18957901000979	138.6771392822266	132.7407531738282	44.52634048461915	56.66641998291018	243.7681121826173	88.71013641357425	138.3235168457032	277.6201171875001	110.216667175293	88.56399536132815	221.0544891357423	84.92421722412112	33.63122177124025	328.2850646972657	62.56764221191409	119.5001602172852	336.0455322265626	75.17753601074222	86.19976043701175	315.9111938476564	59.25026702880862	21.75166130065919	374.3408203125001	68.44916534423831	80.69895935058597	170.3967895507813	711.076110839844	390.0141601562502	240.1275482177736	708.6975097656252	418.5960693359377	177.7174530029297	625.4265747070315	405.7650146484377	237.6591186523439	603.540954589844	419.5335998535159	244.5517425537111	484.598327636719	292.0122070312501	214.8757934570314	493.9645080566409	407.3334045410159	140.6719055175782	271.2545471191407	406.8285827636721	202.8485107421876	287.0226135253907	423.146423339844	134.2775268554688	210.5607452392579	388.7951660156252	206.4254302978517	206.8671112060548	411.6539611816409	202.2241821289064	121.3531799316407	317.4819641113282	174.8021545410157	109.3039474487305	402.3832702636721	120.3355102539063	83.69361877441409	349.7037658691407	113.1631011962891	47.50865173339845	352.4840087890626	159.7524566650391	39.58177566528322	305.4682922363282	141.9618225097657	47.1016311645508	396.4132385253909	241.9306793212892	88.06660461425784	312.4717712402345	280.038543701172	108.7415847778321	363.3366088867189	224.9107818603517	84.14759826660159	417.1705322265627	318.7931213378907	65.66833496093753	325.4122314453126	328.5867919921876	77.7926940917969	369.569061279297	294.5923156738282	46.23614501953126	433.3343505859377	373.0547180175782	71.83743286132815	371.6345825195314	
